<?xml version="1.0" encoding="utf-8"?>
<!-- Generator: Adobe Illustrator 19.0.0, SVG Export Plug-In . SVG Version: 6.00 Build 0)  -->
<svg version="1.1" id="图层_1" xmlns="http://www.w3.org/2000/svg" xmlns:xlink="http://www.w3.org/1999/xlink" x="0px" y="0px"
	 viewBox="0 0 750 722" style="enable-background:new 0 0 750 722;" xml:space="preserve">
<style type="text/css">
	.st0{clip-path:url(#SVGID_2_);}
</style>
<g>
	<g>
		<defs>
			<rect id="SVGID_1_" x="17" y="64" width="715.9" height="595"/>
		</defs>
		<clipPath id="SVGID_2_">
			<use xlink:href="#SVGID_1_"  style="overflow:visible;"/>
		</clipPath>
		<path class="st0" d="M16.9,657.9V64.2h125.9V658H16.9V657.9z M732.1,355.4c0,97.7-27.9,172.6-83.5,224.5
			c-55.6,52-135.9,78-240.9,78H239.7V64.2h186.2c96.9,0,172.2,25.7,225.7,76.7c53.7,51.2,80.5,122.7,80.5,214.4L732.1,355.4
			L732.1,355.4z M601.3,358.6c0-127.4-56.3-191.2-168.9-191.2h-67V554h54c121.1,0,181.7-65.1,181.7-195.4H601.3z M601.3,358.6"/>
	</g>
</g>
</svg>
