<?xml version="1.0" encoding="utf-8"?>
<!-- Generator: Adobe Illustrator 19.0.0, SVG Export Plug-In . SVG Version: 6.00 Build 0)  -->
<svg version="1.1" id="图层_1" xmlns="http://www.w3.org/2000/svg" xmlns:xlink="http://www.w3.org/1999/xlink" x="0px" y="0px"
	 viewBox="0 0 716 844" style="enable-background:new 0 0 716 844;" xml:space="preserve">
<style type="text/css">
	.st1{fill: white;}
</style>
<g>
	<g>
		<path class="st1" d="M38,744.9c1.1-0.9,0.8-2.2,0.8-3.4c0.1-15.7,1.9-31.2,3.9-46.8C46,668.2,52,642,60.7,616.6c8.1-23.6,18.5-46.2,31.7-67.4
			c10.1-16.2,21.4-31.3,34.2-45.5c14.8-16.5,31.4-31,49.5-43.8c19-13.4,39.5-24.1,61-32.8c2.6-1,3.9-0.5,5.2,1.7
			c18.7,31,37.3,62,56.1,92.9c19,31.4,38.1,62.8,57.1,94.1c2.4,3.9,2.5,3.9,5.1,0c21.3-32.5,42.5-65,63.8-97.5
			c11.8-18,23.5-36.1,35.2-54.2c6.6-10.1,13.2-20.3,19.8-30.4c1.1-1.7,1.8-2.4,4-1.4c18.3,8.1,35.7,17.8,52.2,29.2
			c18.8,13,35.8,28.1,51.2,44.9c17.7,19.4,32.6,40.9,45.1,64.1c18.1,33.6,29.8,69.3,37.2,106.5c3,15.5,5.3,31,6.5,46.8
			c0.6,8.5,1.7,16.9,1.5,25.4c0,1-0.2,2.2,0.8,3v18.4c-1.2,1.3-2.9,1.9-4.5,2.5c-35.4,13.7-71.4,25.3-108.3,34.4
			c-37.5,9.3-75.3,16.4-113.8,20.4c-18.4,1.9-36.9,3.4-55.4,3.7c-21.5,0.4-43,0.4-64.4,0.2c-40.2-0.4-80.1-5.4-119.6-12.4
			c-38.4-6.8-76.2-16.1-113.5-27.6c-18.7-5.8-37.3-12-55.8-18.8c-1.6-0.6-3.3-1.1-4.5-2.4V744.9z M366.3,13c3.5,1.7,7.3,1,10.9,1.4
			c16,1.9,31.2,6.2,46,12.3c13,5.3,25.1,12.2,36.4,20.5c12.6,9.2,24,19.7,34,31.7c14.9,17.9,26,37.9,33.2,60
			c4,12.2,6.6,24.9,7.8,37.7c0.9,9.6,1,19.2,0.5,28.7c-1.1,19.9-6,39-13.8,57.4c-6.7,15.9-15.6,30.6-26.5,43.9
			c-9.8,12-20.9,22.7-33.4,31.9c-15.7,11.5-32.7,20.4-51.2,26.4c-11.9,3.9-24,6.5-36.5,7.7c-25.3,2.5-50,0.2-74.1-7.9
			c-23.1-7.7-43.7-19.8-62.2-35.7c-18.3-15.8-32.7-34.6-43.6-56c-9.1-17.7-14.8-36.6-17.4-56.5c-1.5-11-2-22-1.3-33
			c1.1-20.1,5.7-39.6,13.4-58.3c7.5-18.1,17.8-34.6,30.6-49.3c9.2-10.5,19.3-20.2,30.8-28.4c19.9-14.3,41.7-24.5,65.6-30
			c8.5-2,17.1-3.6,25.9-3.8c0.9,0,1.9,0.1,2.6-0.8C351.4,13,358.8,13,366.3,13L366.3,13z M366.3,13"/>
	</g>
</g>
</svg>
