<?xml version="1.0" standalone="no"?><!DOCTYPE svg PUBLIC "-//W3C//DTD SVG 1.1//EN" "http://www.w3.org/Graphics/SVG/1.1/DTD/svg11.dtd"><svg t="1527480418933" class="icon" style="" viewBox="0 0 1024 1024" version="1.1" xmlns="http://www.w3.org/2000/svg" p-id="1894" xmlns:xlink="http://www.w3.org/1999/xlink" width="200" height="200"><defs><style type="text/css"></style></defs><path d="M950.857143 768v73.142857q0 14.857143-10.857143 25.714286t-25.714286 10.857143H109.714286q-14.857143 0-25.714286-10.857143t-10.857143-25.714286v-73.142857q0-14.857143 10.857143-25.714286t25.714286-10.857143h804.571428q14.857143 0 25.714286 10.857143t10.857143 25.714286z m0-292.571429v73.142858q0 14.857143-10.857143 25.714285t-25.714286 10.857143H109.714286q-14.857143 0-25.714286-10.857143T73.142857 548.571429V475.428571q0-14.857143 10.857143-25.714285t25.714286-10.857143h804.571428q14.857143 0 25.714286 10.857143t10.857143 25.714285z m0-292.571428v73.142857q0 14.857143-10.857143 25.714286t-25.714286 10.857143H109.714286q-14.857143 0-25.714286-10.857143T73.142857 256V182.857143q0-14.857143 10.857143-25.714286t25.714286-10.857143h804.571428q14.857143 0 25.714286 10.857143t10.857143 25.714286z" p-id="1895" fill="#959595"></path></svg>